<?xml version="1.0" encoding="utf-8"?>
<?xml-stylesheet type="text/xsl" href="rss1.xsl"?>
<rss version="2.0" xmlns:atom="http://www.w3.org/2005/Atom" xmlns:content="http://purl.org/rss/1.0/modules/content/" xmlns:dc="http://purl.org/dc/elements/1.1/" xmlns:media="http://search.yahoo.com/mrss/">
<channel>
 <title>Getty</title>
 <link>http://www.gettyimg.com/</link>
 <atom:link href="http://www.gettyimg.com/" rel="self" type="application/rss+xml" />

 
                <item>
                <title><![CDATA[【Music Videos】Christine and the Queens - True love (feat. 070 Shake) [Official Music Video] [AAC LC 256kbits | AVC 1080p | Apple Music]]]></title>
                <link><![CDATA[https://sharemania.us/threads/christine-and-the-queens-true-love-feat-070-shake-official-music-video-aac-lc-256kbits-avc-1080p-apple-music.222803/]]></link>
                <description><![CDATA[<article>
<blockquote class="messageText SelectQuoteContainer ugc baseHtml">
<img src="https://i.imgur.com/Aw7hpDq.png" class="bbCodeImage LbImage" alt="[​IMG]" data-url="https://i.imgur.com/Aw7hpDq.png" style=""> <br>
<br>
<div class="ToggleTriggerAnchor bbCodeSpoilerContainer">
<button type="button" class="button bbCodeSpoilerButton ToggleTrigger Tooltip JsOnly" data-target="> .SpoilerTarget"><span>Spoiler: <span class="SpoilerTitle">MediaInfo</span></span></button>
<div class="SpoilerTarget bbCodeSpoilerText">
<div class="bbCodeBlock bbCodeCode">
<div class="type">Code:</div>
<pre>General
Unique ID                                : 327191898442953621553458831590472730652 (0xF626DE12FCAE660A71DF3F5793FEC81C)
Complete name                            : C:\Users\Shadow\Desktop\SurroundHiRes-DL\DOWNLOADS\True.love.feat..070.Shake.Official.Music.Video.2023.1080p.AM.WEB-DL.AAC2.0.H.264-WKS.mkv
Format                                   : Matroska
Format version                           : Version 4
File size                                : 297 MiB
Duration                                 : 5 min 48 s
Overall bit rate                         : 7 160 kb/s
Frame rate                               : 23.976 FPS
Encoded date                             : 2023-06-16 22:52:27 UTC
Writing application                      : WKSmerge v300.0.0 SASUKE DUCK  (' SASUKE DUCK ') 64-bit
Writing library                          : libebml v1.4.2 + libmatroska v1.6.4

Video
ID                                       : 1
Format                                   : AVC
Format/Info                              : Advanced Video Codec
Format profile                           : High@L4
Format settings                          : CABAC / 4 Ref Frames
Format settings, CABAC                   : Yes
Format settings, Reference frames        : 4 frames
Codec ID                                 : V_MPEG4/ISO/AVC
Duration                                 : 5 min 48 s
Bit rate                                 : 6 873 kb/s
Width                                    : 1 920 pixels
Height                                   : 1 080 pixels
Display aspect ratio                     : 16:9
Frame rate mode                          : Constant
Frame rate                               : 23.976 (24000/1001) FPS
Color space                              : YUV
Chroma subsampling                       : 4:2:0
Bit depth                                : 8 bits
Scan type                                : Progressive
Bits/(Pixel*Frame)                       : 0.138
Stream size                              : 285 MiB (96%)
Default                                  : Yes
Forced                                   : No
Color range                              : Limited
Color primaries                          : BT.709
Transfer characteristics                 : BT.709
Matrix coefficients                      : BT.709

Audio
ID                                       : 2
Format                                   : AAC LC
Format/Info                              : Advanced Audio Codec Low Complexity
Codec ID                                 : A_AAC-2
Duration                                 : 5 min 48 s
Bit rate                                 : 288 kb/s
Channel(s)                               : 2 channels
Channel layout                           : L R
Sampling rate                            : 48.0 kHz
Frame rate                               : 46.875 FPS (1024 SPF)
Compression mode                         : Lossy
Stream size                              : 11.8 MiB (4%)
Language                                 : English
Default                                  : Yes
Forced                                   : No</pre>
</div></div>
</div><br>
<div class="bbCodeBlock bbCodeVfcHH HiddenContent">
<div class="attribution type">Hidden Content:</div>
<blockquote>You must reply before you can see the hidden data contained here.</blockquote>
</div>
<div class="messageTextEndMarker">&nbsp;</div>
</blockquote>
</article>]]></description>
                <author><![CDATA[SonMaxime]]></author>
                </item>

                
                <item>
                <title><![CDATA[【Music Videos】Christine and the Queens - To Be Honest [AAC LC 256kbits | AVC 1080p | Apple Music]]]></title>
                <link><![CDATA[https://sharemania.us/threads/christine-and-the-queens-to-be-honest-aac-lc-256kbits-avc-1080p-apple-music.222802/]]></link>
                <description><![CDATA[<article>
<blockquote class="messageText SelectQuoteContainer ugc baseHtml">
<img src="https://i.imgur.com/81Tv4RF.png" class="bbCodeImage LbImage" alt="[​IMG]" data-url="https://i.imgur.com/81Tv4RF.png" style=""> <br>
<br>
<div class="ToggleTriggerAnchor bbCodeSpoilerContainer">
<button type="button" class="button bbCodeSpoilerButton ToggleTrigger Tooltip JsOnly" data-target="> .SpoilerTarget"><span>Spoiler: <span class="SpoilerTitle">MediaInfo</span></span></button>
<div class="SpoilerTarget bbCodeSpoilerText">
<div class="bbCodeBlock bbCodeCode">
<div class="type">Code:</div>
<pre>General
Unique ID                                : 21587040519250678762407978594884094962 (0x103D83453370CE18CB288F8C456F8BF2)
Complete name                            : C:\Users\Shadow\Desktop\SurroundHiRes-DL\DOWNLOADS\Tears.can.be.so.soft.Official.Music.Video.2023.1080p.AM.WEB-DL.AAC2.0.H.264-WKS.mkv
Format                                   : Matroska
Format version                           : Version 4
File size                                : 261 MiB
Duration                                 : 5 min 11 s
Overall bit rate                         : 7 005 kb/s
Frame rate                               : 24.000 FPS
Encoded date                             : 2023-06-16 22:51:39 UTC
Writing application                      : WKSmerge v300.0.0 SASUKE DUCK  (' SASUKE DUCK ') 64-bit
Writing library                          : libebml v1.4.2 + libmatroska v1.6.4

Video
ID                                       : 1
Format                                   : AVC
Format/Info                              : Advanced Video Codec
Format profile                           : High@L4
Format settings                          : CABAC / 4 Ref Frames
Format settings, CABAC                   : Yes
Format settings, Reference frames        : 4 frames
Codec ID                                 : V_MPEG4/ISO/AVC
Duration                                 : 5 min 11 s
Bit rate                                 : 6 729 kb/s
Width                                    : 1 920 pixels
Height                                   : 1 080 pixels
Display aspect ratio                     : 16:9
Frame rate mode                          : Constant
Frame rate                               : 24.000 FPS
Color space                              : YUV
Chroma subsampling                       : 4:2:0
Bit depth                                : 8 bits
Scan type                                : Progressive
Bits/(Pixel*Frame)                       : 0.135
Stream size                              : 250 MiB (96%)
Default                                  : Yes
Forced                                   : No
Color range                              : Limited
Color primaries                          : BT.709
Transfer characteristics                 : BT.709
Matrix coefficients                      : BT.709

Audio
ID                                       : 2
Format                                   : AAC LC
Format/Info                              : Advanced Audio Codec Low Complexity
Codec ID                                 : A_AAC-2
Duration                                 : 5 min 11 s
Bit rate                                 : 274 kb/s
Channel(s)                               : 2 channels
Channel layout                           : L R
Sampling rate                            : 48.0 kHz
Frame rate                               : 46.875 FPS (1024 SPF)
Compression mode                         : Lossy
Stream size                              : 10.2 MiB (4%)
Language                                 : English
Default                                  : Yes
Forced                                   : No</pre>
</div></div>
</div><br>
<div class="bbCodeBlock bbCodeVfcHH HiddenContent">
<div class="attribution type">Hidden Content:</div>
<blockquote>You must reply before you can see the hidden data contained here.</blockquote>
</div>
<div class="messageTextEndMarker">&nbsp;</div>
</blockquote>
</article>]]></description>
                <author><![CDATA[SonMaxime]]></author>
                </item>

                
                <item>
                <title><![CDATA[【Music Videos】Christine and the Queens - Tears can be so soft (Official Music Video) [AAC LC 256kbits | AVC 1080p | Apple Music]]]></title>
                <link><![CDATA[https://sharemania.us/threads/christine-and-the-queens-tears-can-be-so-soft-official-music-video-aac-lc-256kbits-avc-1080p-apple-music.222801/]]></link>
                <description><![CDATA[<article>
<blockquote class="messageText SelectQuoteContainer ugc baseHtml">
<img src="https://i.imgur.com/mUV3VNF.png" class="bbCodeImage LbImage" alt="[​IMG]" data-url="https://i.imgur.com/mUV3VNF.png" style=""> <br>
<br>
<div class="ToggleTriggerAnchor bbCodeSpoilerContainer">
<button type="button" class="button bbCodeSpoilerButton ToggleTrigger Tooltip JsOnly" data-target="> .SpoilerTarget"><span>Spoiler: <span class="SpoilerTitle">MediaInfo</span></span></button>
<div class="SpoilerTarget bbCodeSpoilerText">
<div class="bbCodeBlock bbCodeCode">
<div class="type">Code:</div>
<pre>General
Unique ID                                : 21587040519250678762407978594884094962 (0x103D83453370CE18CB288F8C456F8BF2)
Complete name                            : C:\Users\Shadow\Desktop\SurroundHiRes-DL\DOWNLOADS\Tears.can.be.so.soft.Official.Music.Video.2023.1080p.AM.WEB-DL.AAC2.0.H.264-WKS.mkv
Format                                   : Matroska
Format version                           : Version 4
File size                                : 261 MiB
Duration                                 : 5 min 11 s
Overall bit rate                         : 7 005 kb/s
Frame rate                               : 24.000 FPS
Encoded date                             : 2023-06-16 22:51:39 UTC
Writing application                      : WKSmerge v300.0.0 SASUKE DUCK  (' SASUKE DUCK ') 64-bit
Writing library                          : libebml v1.4.2 + libmatroska v1.6.4

Video
ID                                       : 1
Format                                   : AVC
Format/Info                              : Advanced Video Codec
Format profile                           : High@L4
Format settings                          : CABAC / 4 Ref Frames
Format settings, CABAC                   : Yes
Format settings, Reference frames        : 4 frames
Codec ID                                 : V_MPEG4/ISO/AVC
Duration                                 : 5 min 11 s
Bit rate                                 : 6 729 kb/s
Width                                    : 1 920 pixels
Height                                   : 1 080 pixels
Display aspect ratio                     : 16:9
Frame rate mode                          : Constant
Frame rate                               : 24.000 FPS
Color space                              : YUV
Chroma subsampling                       : 4:2:0
Bit depth                                : 8 bits
Scan type                                : Progressive
Bits/(Pixel*Frame)                       : 0.135
Stream size                              : 250 MiB (96%)
Default                                  : Yes
Forced                                   : No
Color range                              : Limited
Color primaries                          : BT.709
Transfer characteristics                 : BT.709
Matrix coefficients                      : BT.709

Audio
ID                                       : 2
Format                                   : AAC LC
Format/Info                              : Advanced Audio Codec Low Complexity
Codec ID                                 : A_AAC-2
Duration                                 : 5 min 11 s
Bit rate                                 : 274 kb/s
Channel(s)                               : 2 channels
Channel layout                           : L R
Sampling rate                            : 48.0 kHz
Frame rate                               : 46.875 FPS (1024 SPF)
Compression mode                         : Lossy
Stream size                              : 10.2 MiB (4%)
Language                                 : English
Default                                  : Yes
Forced                                   : No</pre>
</div></div>
</div><br>
<div class="bbCodeBlock bbCodeVfcHH HiddenContent">
<div class="attribution type">Hidden Content:</div>
<blockquote>You must reply before you can see the hidden data contained here.</blockquote>
</div>
<div class="messageTextEndMarker">&nbsp;</div>
</blockquote>
</article>]]></description>
                <author><![CDATA[SonMaxime]]></author>
                </item>

                </channel></rss>